<svg width="40" height="40" viewBox="0 0 40 40" fill="none" xmlns="http://www.w3.org/2000/svg">
<path d="M15 6.66669V8.96669C13.6167 8.41669 12.1334 8.13335 10.65 8.13335C7.66669 8.13335 4.68336 9.26669 2.40002 11.55L7.95002 17.1H9.80002V18.95C11.2334 20.3834 13.1 21.1334 14.9834 21.2167V25H10V30C10 31.8334 11.5 33.3334 13.3334 33.3334H30C32.7667 33.3334 35 31.1 35 28.3334V6.66669H15ZM13.15 17.35V13.7667H9.35002L7.61669 12.0334C8.58445 11.6599 9.6127 11.4678 10.65 11.4667C12.8834 11.4667 14.9667 12.3334 16.55 13.9L18.9 16.25L18.5667 16.5834C18.148 17.0061 17.6495 17.3417 17.1002 17.5705C16.551 17.7994 15.9617 17.9171 15.3667 17.9167C14.5834 17.9167 13.8167 17.7167 13.15 17.35ZM31.6667 28.3334C31.6667 29.25 30.9167 30 30 30C29.0834 30 28.3334 29.25 28.3334 28.3334V25H18.3334V20.6834C19.2834 20.3 20.1667 19.7334 20.9334 18.9667L21.2667 18.6334L25.9834 23.3334H28.3334V20.9834L18.3334 11.0334V10H31.6667V28.3334Z" fill="#F3941E"/>
</svg>
