<svg width="44" height="44" viewBox="0 0 44 44" fill="none" xmlns="http://www.w3.org/2000/svg">
<path fill-rule="evenodd" clip-rule="evenodd" d="M43.1655 7.89062L40.728 7.31562L34.1405 13.8656L30.4093 10.0656L36.8343 3.325L36.2718 0.849999C34.9141 0.395781 33.494 0.15541 32.0624 0.137499C30.5007 0.113484 28.9508 0.411337 27.5093 1.0125C26.1174 1.64253 24.8593 2.53362 23.803 3.6375C22.6272 4.75129 21.6961 6.09752 21.0687 7.59062C19.8607 10.5621 19.8607 13.8879 21.0687 16.8594C14.5538 23.2687 8.12301 29.763 1.77803 36.3406C1.12178 37.2 0.809277 38.2719 0.890527 39.35C0.954564 40.5096 1.47605 41.5964 2.34053 42.3719C2.72803 42.7938 3.19053 43.1437 3.70615 43.3969C4.2374 43.6312 4.80928 43.7656 5.3874 43.7938C6.3749 43.775 7.32178 43.4 8.05615 42.7406C12.8937 38.1875 22.1624 28.8344 27.428 23.3531C28.8562 23.9594 30.3905 24.2719 31.9405 24.2687C33.5008 24.2675 35.045 23.9536 36.4818 23.3454C37.9187 22.7373 39.2191 21.8473 40.3061 20.7281C42.5391 18.4508 43.7863 15.3863 43.778 12.1969C43.8141 10.7374 43.6071 9.28213 43.1655 7.89062ZM6.16553 40.525C6.04525 40.6318 5.90026 40.707 5.74365 40.7438C5.58959 40.7704 5.43209 40.7704 5.27803 40.7438C5.11649 40.7191 4.96264 40.6582 4.82803 40.5656C4.68358 40.4811 4.56143 40.3632 4.47178 40.2219C4.03428 39.775 3.6249 38.925 4.03428 38.4469C8.31553 33.8937 17.1312 24.9937 22.6437 19.5531C22.9562 19.9656 23.2999 20.3594 23.6687 20.7281C24.0374 21.1125 24.4343 21.4688 24.8561 21.7937C19.5249 27.2625 10.828 36.0563 6.16553 40.525ZM40.9093 12.1969C40.9155 14.5875 39.9843 16.8844 38.3093 18.5969C36.6378 20.2365 34.3898 21.1551 32.0483 21.1551C29.7069 21.1551 27.4589 20.2365 25.7874 18.5969C24.5624 17.3184 23.7255 15.7184 23.3742 13.983C23.0229 12.2475 23.1716 10.448 23.803 8.79375C24.2233 7.66792 24.8752 6.64283 25.7166 5.78478C26.558 4.92673 27.57 4.25482 28.6874 3.8125C29.7483 3.36846 30.8873 3.14109 32.0374 3.14375H32.8312L27.153 8.99687V11.1719L33.0749 17.0656H35.1374L40.9093 11.3906V12.1969ZM7.1249 17.9H11.9093L14.1124 20.1406L16.2311 18.0344L14.153 15.9156V15.7812L14.3312 10.6281L13.6437 9.2625L4.70615 3.38125L2.85928 3.5875L0.262402 6.24062L0.0561523 8.1125L5.7999 17.2312L7.1249 17.9ZM4.17178 6.55L11.403 11.3125L11.2812 14.8219H7.91865L3.25615 7.44062L4.17178 6.55ZM26.3749 28.3L28.4812 26.1969L38.1874 36.15C39.005 37.0092 39.4609 38.1499 39.4609 39.3359C39.4609 40.522 39.005 41.6626 38.1874 42.5219C37.5727 43.153 36.7821 43.5844 35.9188 43.76C35.0554 43.9356 34.1592 43.8472 33.3468 43.5062C32.8283 43.2763 32.3633 42.9411 31.9812 42.5219L22.1624 32.5125L24.2843 30.3937L34.0718 40.375C34.2034 40.5202 34.3671 40.6325 34.5499 40.7031C34.9096 40.8492 35.3121 40.8492 35.6718 40.7031C35.8545 40.6324 36.0182 40.5201 36.1499 40.375C36.2867 40.2395 36.3932 40.0765 36.4624 39.8969C36.5341 39.7135 36.5722 39.5187 36.5749 39.3219C36.5718 39.1253 36.5348 38.9308 36.4655 38.7469C36.3963 38.5672 36.2898 38.4043 36.153 38.2687L26.3749 28.3Z" fill="white" fill-opacity="0.5"/>
</svg>
