<svg width="40" height="40" viewBox="0 0 40 40" fill="none" xmlns="http://www.w3.org/2000/svg">
<path d="M36.9066 18.272L33.6 15.2L30.6666 9.33331C30.4147 8.92368 30.0616 8.58583 29.6413 8.3523C29.2209 8.11877 28.7475 7.99743 28.2666 7.99998H11.7333C11.2524 7.99743 10.779 8.11877 10.3587 8.3523C9.9383 8.58583 9.58517 8.92368 9.33329 9.33331L6.39996 15.2L3.09329 18.272C2.95859 18.3969 2.85115 18.5483 2.77773 18.7167C2.70431 18.8852 2.66648 19.0669 2.66663 19.2506V30.6666C2.66663 31.0203 2.8071 31.3594 3.05715 31.6095C3.3072 31.8595 3.64634 32 3.99996 32H9.33329C9.86663 32 10.6666 31.4666 10.6666 30.9333V29.3333H29.3333V30.6666C29.3333 31.2 29.8666 32 30.4 32H36C36.3536 32 36.6927 31.8595 36.9428 31.6095C37.1928 31.3594 37.3333 31.0203 37.3333 30.6666V19.2506C37.3334 19.0669 37.2956 18.8852 37.2222 18.7167C37.1488 18.5483 37.0413 18.3969 36.9066 18.272ZM12 10.6666H28L30.6666 16H9.33329L12 10.6666ZM13.3333 22.9333C13.3333 23.4666 12.5333 24 12 24H6.39996C5.86663 24 5.33329 23.2 5.33329 22.6666V19.7333C5.59996 18.9333 6.13329 18.4 6.93329 18.6666L12.2666 19.7333C12.8 19.7333 13.3333 20.5333 13.3333 21.0666V22.9333ZM34.6666 22.6666C34.6666 23.2 34.1333 24 33.6 24H28C27.4666 24 26.6666 23.4666 26.6666 22.9333V21.0666C26.6666 20.5333 27.2 19.7333 27.7333 19.7333L33.0666 18.6666C33.8666 18.4 34.4 18.9333 34.6666 19.7333V22.6666Z" fill="#F3941E"/>
</svg>
