<svg width="40" height="40" viewBox="0 0 40 40" fill="none" xmlns="http://www.w3.org/2000/svg">
<g clip-path="url(#clip0_957_317)">
<path d="M20 2.22223C16.4838 2.22223 13.0467 3.26488 10.1231 5.21832C7.19961 7.17177 4.92099 9.94828 3.57543 13.1967C2.22987 16.4452 1.87781 20.0197 2.56377 23.4683C3.24973 26.9168 4.9429 30.0845 7.42917 32.5708C9.91543 35.0571 13.0831 36.7502 16.5317 37.4362C19.9802 38.1222 23.5548 37.7701 26.8032 36.4245C30.0517 35.079 32.8282 32.8004 34.7816 29.8768C36.7351 26.9533 37.7777 23.5161 37.7777 20C37.7777 15.285 35.9047 10.7632 32.5707 7.42922C29.2368 4.09524 24.7149 2.22223 20 2.22223ZM26.8888 25.7556C26.8081 25.8777 26.7041 25.9827 26.5826 26.0645C26.4612 26.1463 26.3248 26.2033 26.1813 26.2322C26.0378 26.2611 25.89 26.2613 25.7463 26.2329C25.6027 26.2045 25.4661 26.148 25.3444 26.0667L18.7888 21.6222V11.9445C18.7888 11.6498 18.9059 11.3672 19.1143 11.1588C19.3227 10.9504 19.6053 10.8333 19.9 10.8333C20.1946 10.8333 20.4773 10.9504 20.6856 11.1588C20.894 11.3672 21.0111 11.6498 21.0111 11.9445V20.4445L26.5666 24.2111C26.6897 24.291 26.7957 24.3944 26.8785 24.5154C26.9614 24.6364 27.0195 24.7726 27.0494 24.9162C27.0794 25.0598 27.0806 25.2079 27.0531 25.3519C27.0255 25.496 26.9697 25.6332 26.8888 25.7556ZM26.5 9.14445C24.9366 8.20213 23.1879 7.60917 21.3738 7.40624C19.5597 7.20332 17.7231 7.39523 15.9902 7.96881C14.2572 8.5424 12.6689 9.48408 11.3341 10.7292C9.99931 11.9744 8.94968 13.4936 8.25723 15.1826C7.56478 16.8715 7.24589 18.6903 7.32244 20.5141C7.399 22.3379 7.86919 24.1236 8.70075 25.7486C9.53231 27.3736 10.7056 28.7994 12.14 29.9284C13.5745 31.0573 15.2361 31.8626 17.0111 32.2889L16.6666 34.0333C14.631 33.5595 12.7225 32.6496 11.0727 31.3664C9.423 30.0832 8.07139 28.4573 7.11121 26.6009C6.15103 24.7445 5.60515 22.7018 5.51125 20.6139C5.41736 18.526 5.77768 16.4425 6.56736 14.5074C7.35703 12.5723 8.55724 10.8316 10.0851 9.40552C11.613 7.97942 13.4322 6.90187 15.4171 6.24726C17.4019 5.59266 19.5052 5.37659 21.5817 5.61398C23.6582 5.85136 25.6585 6.53655 27.4444 7.62223L26.5 9.14445Z" fill="#F3941E"/>
</g>
<defs>
<clipPath id="clip0_957_317">
<rect width="40" height="40" fill="white"/>
</clipPath>
</defs>
</svg>
