<svg width="40" height="40" viewBox="0 0 40 40" fill="none" xmlns="http://www.w3.org/2000/svg">
<path d="M20 19.1666C18.895 19.1666 17.8352 18.7277 17.0538 17.9463C16.2724 17.1649 15.8334 16.105 15.8334 15C15.8334 13.8949 16.2724 12.8351 17.0538 12.0537C17.8352 11.2723 18.895 10.8333 20 10.8333C21.1051 10.8333 22.1649 11.2723 22.9463 12.0537C23.7277 12.8351 24.1667 13.8949 24.1667 15C24.1667 15.5472 24.0589 16.089 23.8495 16.5945C23.6401 17.1 23.3332 17.5593 22.9463 17.9463C22.5594 18.3332 22.1001 18.6401 21.5946 18.8495C21.089 19.0589 20.5472 19.1666 20 19.1666ZM20 3.33331C16.9058 3.33331 13.9384 4.56248 11.7505 6.7504C9.56254 8.93832 8.33337 11.9058 8.33337 15C8.33337 23.75 20 36.6666 20 36.6666C20 36.6666 31.6667 23.75 31.6667 15C31.6667 11.9058 30.4375 8.93832 28.2496 6.7504C26.0617 4.56248 23.0942 3.33331 20 3.33331Z" fill="#F3941E"/>
</svg>
