<svg width="40" height="40" viewBox="0 0 40 40" fill="none" xmlns="http://www.w3.org/2000/svg">
<path d="M11.2143 3.86138L13.9814 3.02709C14.8947 2.75219 15.8768 2.81889 16.7444 3.21475C17.6121 3.61061 18.3062 4.30861 18.6972 5.17852L20.6372 9.49281C20.9739 10.2413 21.0677 11.0764 20.9055 11.8809C20.7433 12.6854 20.3333 13.419 19.7329 13.9785L16.78 16.73C16.3843 17.1057 16.6843 18.57 18.13 21.0757C19.5772 23.5828 20.6957 24.5742 21.2114 24.42L25.08 23.2371C25.8642 22.9972 26.7037 23.0088 27.481 23.2701C28.2583 23.5314 28.9343 24.0294 29.4143 24.6942L32.1714 28.5157C32.7283 29.2873 32.9862 30.2349 32.8971 31.1824C32.8081 32.1298 32.3781 33.0127 31.6871 33.6671L29.5557 35.6857C28.8677 36.3373 28.0191 36.7947 27.0965 37.0113C26.1739 37.2279 25.2104 37.1959 24.3043 36.9185C19.8386 35.5514 15.7029 31.4942 11.8414 24.8042C7.97144 18.1042 6.51001 12.4528 7.52858 7.83566C7.73402 6.90531 8.18385 6.04658 8.83172 5.34799C9.47958 4.6494 10.302 4.13623 11.2143 3.86138Z" fill="#F3941E"/>
</svg>
