<svg width="30" height="30" viewBox="0 0 30 30" fill="none" xmlns="http://www.w3.org/2000/svg">
<path d="M16.25 5C16.25 4.66848 16.1183 4.35054 15.8839 4.11612C15.6495 3.8817 15.3315 3.75 15 3.75C14.6685 3.75 14.3505 3.8817 14.1161 4.11612C13.8817 4.35054 13.75 4.66848 13.75 5H16.25ZM13.75 5V6.25H16.25V5H13.75ZM16.25 25C16.25 25.3315 16.1183 25.6495 15.8839 25.8839C15.6495 26.1183 15.3315 26.25 15 26.25C14.6685 26.25 14.3505 26.1183 14.1161 25.8839C13.8817 25.6495 13.75 25.3315 13.75 25H16.25ZM13.75 25V18.75H16.25V25H13.75Z" fill="#FF0231"/>
<path d="M15 11.25V13.75" stroke="#FF0231" stroke-width="2.5"/>
<path d="M20 15.75C20 15.05 20 14.7 19.8638 14.4325C19.7439 14.1973 19.5527 14.0061 19.3175 13.8863C19.05 13.75 18.7 13.75 18 13.75H8.32875C8.0225 13.75 7.87 13.75 7.72625 13.785C7.59826 13.8156 7.47592 13.8662 7.36375 13.935C7.23875 14.0112 7.13 14.12 6.91375 14.335L6.41375 14.835C5.91875 15.3313 5.67125 15.5787 5.57875 15.8638C5.49719 16.1148 5.49719 16.3852 5.57875 16.6362C5.67125 16.9213 5.91875 17.1687 6.41375 17.6637L6.91375 18.1637C7.13 18.38 7.23875 18.4887 7.36375 18.5662C7.47625 18.635 7.59875 18.685 7.72625 18.7162C7.87 18.75 8.0225 18.75 8.32875 18.75H18C18.7 18.75 19.05 18.75 19.3175 18.6137C19.5527 18.4939 19.7439 18.3027 19.8638 18.0675C20 17.8 20 17.45 20 16.75V15.75ZM8.75 8.25C8.75 7.55 8.75 7.2 8.88625 6.9325C9.00609 6.69731 9.19731 6.50609 9.4325 6.38625C9.7 6.25 10.05 6.25 10.75 6.25H20.4213C20.7275 6.25 20.88 6.25 21.0238 6.285C21.1517 6.31561 21.2741 6.36623 21.3863 6.435C21.5113 6.51125 21.62 6.62 21.8363 6.835L22.3363 7.335C22.8313 7.83125 23.0788 8.07875 23.1713 8.36375C23.2528 8.61479 23.2528 8.88521 23.1713 9.13625C23.0788 9.42125 22.8313 9.66875 22.3363 10.1637L21.8363 10.6638C21.62 10.88 21.5113 10.9887 21.3863 11.0662C21.2741 11.135 21.1517 11.1856 21.0238 11.2162C20.88 11.25 20.7275 11.25 20.4213 11.25H10.75C10.05 11.25 9.7 11.25 9.4325 11.1137C9.19731 10.9939 9.00609 10.8027 8.88625 10.5675C8.75 10.3 8.75 9.95 8.75 9.25V8.25Z" fill="#FF0231"/>
</svg>
