<svg width="20" height="20" viewBox="0 0 20 20" fill="none" xmlns="http://www.w3.org/2000/svg">
<g clip-path="url(#clip0_957_1055)">
<path d="M0 16.25V10H3.75V16.25H0ZM18.75 3.75V7.5H15V3.75H18.75ZM13.75 0V7.5H11.25V16.25H10V0H13.75ZM5 16.25V3.75H8.75V16.25H5ZM12.5 8.75H20V20L16.25 17.5L12.5 20V8.75ZM18.75 10H13.75V17.666C14.1732 17.3861 14.5898 17.1094 15 16.8359C15.4102 16.5625 15.8268 16.2826 16.25 15.9961C16.6732 16.2695 17.0898 16.5462 17.5 16.8262C17.9102 17.1061 18.3268 17.3861 18.75 17.666V10Z" fill="black"/>
</g>
<defs>
<clipPath id="clip0_957_1055">
<rect width="20" height="20" fill="white"/>
</clipPath>
</defs>
</svg>
